<svg height="488pt" viewBox="-4 0 488 488" width="488pt" xmlns="http://www.w3.org/2000/svg"><g fill="#808080"><path d="m312 0h16v64h-16zm0 0"/><path d="m392 0h16v64h-16zm0 0"/><path d="m72 264h112v224h-32l-24-152-24 152h-32zm0 0"/></g><path d="m72 488h32l24-152 24 152h32v-200h-112zm0 0" fill="#e6e6e6"/><path d="m128 152-40-112h80zm0 0" fill="#e6e6e6"/><path d="m64 112 8 120h112l8-120 24 80h40l-32-128-56-24-40 112-40-112-56 24-32 128h40z" fill="#666"/><path d="m168 64-40 112-40-112-56 24-26 104h34l24-80 8 120h112l8-120 24 80h34l-26-104zm0 0" fill="#e6e6e6"/><path d="m312 200h96c8.839844 0 16 7.160156 16 16s-7.160156 16-16 16h-96c-8.839844 0-16-7.160156-16-16s7.160156-16 16-16zm0 0" fill="#911d22"/><path d="m400 216c0-8.839844-7.160156-16-16-16h-72c-8.839844 0-16 7.160156-16 16s7.160156 16 16 16h72c8.839844 0 16-7.160156 16-16zm0 0" fill="#c1272d"/><path d="m312 200-20.457031-81.832031c-2.351563-9.40625-3.542969-19.070313-3.542969-28.777344 0-18.4375 14.953125-33.390625 33.390625-33.390625 13.65625 0 25.9375 8.3125 31 20.992188l7.609375 19.007812 7.601562-19.007812c5.070313-12.679688 17.351563-20.992188 31.007813-20.992188 18.4375 0 33.390625 14.953125 33.390625 33.390625v6.769531c0 5.207032-.640625 10.390625-1.902344 15.441406l-22.097656 88.398438zm0 0" fill="#666"/><path d="m367.601562 100.992188-7.601562 19.007812-7.601562-19.007812c-5.070313-12.679688-17.351563-20.992188-31.007813-20.992188-15.597656 0-28.589844 10.742188-32.253906 25.199219.582031 4.359375 1.34375 8.695312 2.40625 12.96875l20.457031 81.832031h96l22.097656-88.398438c.453125-1.832031.734375-3.699218 1.03125-5.554687-3.351562-14.894531-16.609375-26.046875-32.519531-26.046875-13.65625 0-25.9375 8.3125-31.007813 20.992188zm0 0" fill="#e6e6e6"/><path d="m310.289062 232-68.890624 220.089844c-3.503907 11.191406-.308594 23.324218 8.3125 31.589844l.023437.015624c5.984375 5.738282 15.699219 5.738282 21.679687 0l3.179688-3.046874c5.980469-5.738282 15.695312-5.738282 21.679688 0l3.175781 3.046874c5.984375 5.738282 15.695312 5.738282 21.679687 0l3.175782-3.046874c5.984374-5.738282 15.695312-5.738282 21.679687 0l3.175781 3.046874c5.984375 5.738282 15.695313 5.738282 21.679688 0l3.175781-3.046874c5.984375-5.738282 15.695313-5.738282 21.679687 0l3.175782 3.046874c5.984375 5.738282 15.695312 5.738282 21.679687 0l3.175781-3.046874c5.984376-5.738282 15.699219-5.738282 21.679688 0l3.179688 3.046874c5.980468 5.738282 15.695312 5.738282 21.679687 0l.023437-.015624c8.621094-8.265626 11.816407-20.398438 8.3125-31.589844l-68.890624-220.089844zm0 0" fill="#ccc"/><path d="m245.449219 478.535156c5.902343-3.464844 13.703125-2.78125 18.816406 2.113282l3.175781 3.046874c.613282.59375 1.292969 1.082032 1.984375 1.550782.6875-.46875 1.367188-.957032 1.980469-1.550782l3.179688-3.046874c5.367187-5.144532 13.710937-5.640626 19.695312-1.550782 5.984375-4.089844 14.328125-3.59375 19.695312 1.550782l3.175782 3.046874c.617187.59375 1.296875 1.082032 1.984375 1.550782.6875-.46875 1.367187-.957032 1.984375-1.550782l3.175781-3.046874c5.367187-5.144532 13.710937-5.640626 19.695313-1.550782 5.984374-4.089844 14.328124-3.59375 19.695312 1.550782l3.175781 3.046874c.617188.59375 1.296875 1.082032 1.984375 1.550782.6875-.46875 1.367188-.957032 1.984375-1.550782l3.175781-3.046874c5.367188-5.144532 13.710938-5.640626 19.695313-1.550782 5.984375-4.089844 14.328125-3.59375 19.695313 1.550782l3.175781 3.046874c.617187.59375 1.296875 1.082032 1.984375 1.550782.6875-.46875 1.371094-.957032 1.984375-1.550782l3.175781-3.046874c5.113281-4.894532 12.914062-5.578126 18.816406-2.113282 5.273438-7.742187 6.890625-17.382812 4.050782-26.445312l-68.875-220.089844h-67.429688l-68.890625 220.089844c-2.832031 9.0625-1.207031 18.703125 4.058594 26.445312zm0 0" fill="#e6e6e6"/><path d="m278.65625 477.929688c5.136719-2.433594 11.34375-1.945313 16.015625 1.476562l49.488281-247.40625h-16.320312zm0 0" fill="#808080"/><path d="m425.320312 479.40625c4.679688-3.421875 10.878907-3.910156 16.015626-1.476562l-49.175782-245.929688h-16.320312zm0 0" fill="#808080"/><path d="m352 485.800781c4.902344 2.886719 11.097656 2.886719 16 0v-253.800781h-16zm0 0" fill="#808080"/><path d="m88 8h80v32h-80zm0 0" fill="#666"/></svg>